<svg xmlns="http://www.w3.org/2000/svg" xml:space="preserve" viewBox="0 0 252.2 195.5"><path d="M0 137.2s40.5-29.4 126.1-29.4 126.1 29.4 126.1 29.4-41-39.4-126.1-39.4S0 137.2 0 137.2z"/><path d="M76.7 140.3H113v-4.7H98.2c-1.5-1.5 0-4.3 0-4.3l24.2-65.1 26.2 65.1s1.7 2.6.1 4.2h-13.1v4.7h39.9v-4.7h-4.2s-2.9.1-4.7-1.1c-1.4-.9-2.5-2.2-3.2-3.7l-34.2-85.6h-6.8l-33.6 85.6s-1.2 2.4-2.6 3.7c-1.2 1.1-5.3 1.1-5.3 1.1h-4.2v4.8z"/><path d="M126.1 195.5c-53.9 0-97.7-43.8-97.7-97.7 0-54 43.8-97.8 97.7-97.8 53.9 0 97.7 43.8 97.7 97.7 0 53.9-43.8 97.8-97.7 97.8zm0-185.6c-48.4 0-87.8 39.4-87.8 87.8s39.4 87.8 87.8 87.8 87.8-39.4 87.8-87.8-39.4-87.8-87.8-87.8z"/></svg>